<svg width="60" height="60" viewBox="0 0 60 60" fill="none" xmlns="http://www.w3.org/2000/svg">
<g clip-path="url(#clip0_418_28)">
<mask id="mask0_418_28" style="mask-type:alpha" maskUnits="userSpaceOnUse" x="0" y="0" width="60" height="60">
<path d="M30.4502 59.7484C46.748 59.7484 59.96 46.5364 59.96 30.2386C59.96 13.9407 46.748 0.72876 30.4502 0.72876C14.1524 0.72876 0.94043 13.9407 0.94043 30.2386C0.94043 46.5364 14.1524 59.7484 30.4502 59.7484Z" fill="black"/>
</mask>
<g mask="url(#mask0_418_28)">
<path d="M30.4502 59.7484C46.748 59.7484 59.96 46.5364 59.96 30.2386C59.96 13.9407 46.748 0.72876 30.4502 0.72876C14.1524 0.72876 0.94043 13.9407 0.94043 30.2386C0.94043 46.5364 14.1524 59.7484 30.4502 59.7484Z" fill="black"/>
<path d="M49.9622 52.3775L23.6112 18.4347H18.6464V42.0327H22.6183V23.4788L46.8443 54.7793C47.9375 54.0478 48.9788 53.2448 49.9622 52.3775Z" fill="url(#paint0_linear_418_28)"/>
<path d="M42.5821 18.4347H38.6475V42.0425H42.5821V18.4347Z" fill="url(#paint1_linear_418_28)"/>
</g>
</g>
<defs>
<linearGradient id="paint0_linear_418_28" x1="36.6801" y1="38.9276" x2="48.3201" y2="53.3546" gradientUnits="userSpaceOnUse">
<stop stop-color="white"/>
<stop offset="1" stop-color="white" stop-opacity="0"/>
</linearGradient>
<linearGradient id="paint1_linear_418_28" x1="40.6148" y1="18.4347" x2="40.5489" y2="35.7717" gradientUnits="userSpaceOnUse">
<stop stop-color="white"/>
<stop offset="1" stop-color="white" stop-opacity="0"/>
</linearGradient>
<clipPath id="clip0_418_28">
<rect width="59.0196" height="59.0196" fill="white" transform="translate(0.94043 0.72876)"/>
</clipPath>
</defs>
</svg>
