<svg width="65" height="58" viewBox="0 0 65 58" fill="none" xmlns="http://www.w3.org/2000/svg">
<path d="M32.0927 34.7232C35.3126 34.7232 37.9229 32.1129 37.9229 28.893C37.9229 25.673 35.3126 23.0627 32.0927 23.0627C28.8727 23.0627 26.2625 25.673 26.2625 28.893C26.2625 32.1129 28.8727 34.7232 32.0927 34.7232Z" fill="#61DAFB"/>
<path d="M32.0927 50.3333C36.6691 54.7843 41.1829 57.4173 44.8189 57.4173C46.0101 57.4173 47.1385 57.1666 48.0789 56.6023C51.3388 54.7216 52.5299 50.0198 51.4015 43.3119C51.2134 42.1208 50.9626 40.9296 50.6492 39.6758C51.903 39.2997 53.0314 38.9235 54.1599 38.5474C60.4916 36.1025 64.0023 32.7172 64.0023 29.0184C64.0023 25.257 60.4916 21.8716 54.1599 19.4894C53.0314 19.0506 51.903 18.6744 50.6492 18.361C50.9626 17.1071 51.2134 15.916 51.4015 14.7249C52.4672 7.8916 51.2761 3.1271 48.0162 1.24638C47.0758 0.68216 45.9474 0.431396 44.7563 0.431396C41.1829 0.431396 36.6065 3.06441 32.03 7.51546C27.5163 3.06441 23.0026 0.431396 19.3665 0.431396C18.1754 0.431396 17.0469 0.68216 16.1066 1.24638C12.8466 3.1271 11.6555 7.82891 12.784 14.5368C12.972 15.7279 13.2228 16.9191 13.5362 18.1729C12.2824 18.549 11.154 18.9252 10.0256 19.3013C3.69379 21.7463 0.183105 25.1316 0.183105 28.8303C0.183105 32.5918 3.69379 35.9771 10.0256 38.3593C11.154 38.7982 12.2824 39.1743 13.5362 39.4878C13.2228 40.7416 12.972 41.9327 12.784 43.1238C11.7182 49.8317 12.9093 54.5962 16.1066 56.4143C17.0469 56.9785 18.1754 57.2292 19.3665 57.2292C23.0026 57.3546 27.5163 54.7216 32.0927 50.3333ZM28.582 41.87C29.7105 41.9327 30.9016 41.9327 32.0927 41.9327C33.2838 41.9327 34.475 41.9327 35.6034 41.87C34.475 43.3746 33.2838 44.7538 32.0927 46.0703C30.9016 44.7538 29.7105 43.3746 28.582 41.87ZM20.8084 35.4129C21.4353 36.4786 21.9995 37.4817 22.6891 38.4847C20.7457 38.2339 18.9277 37.9205 17.1723 37.5443C17.7365 35.8517 18.3634 34.0964 19.1157 32.341C19.6172 33.3441 20.1815 34.4098 20.8084 35.4129ZM17.1723 20.3044C18.9277 19.9282 20.7457 19.6148 22.6891 19.364C22.0622 20.3671 21.4353 21.3701 20.8084 22.4359C20.1815 23.5016 19.6172 24.5047 19.1157 25.5704C18.3007 23.7524 17.6738 21.997 17.1723 20.3044ZM20.6203 28.893C21.4353 27.2004 22.313 25.5077 23.316 23.8151C24.2564 22.1851 25.3221 20.5551 26.3879 18.9252C28.2686 18.7998 30.1493 18.7371 32.0927 18.7371C34.0988 18.7371 35.9795 18.7998 37.7976 18.9252C38.926 20.5551 39.9291 22.1851 40.8694 23.8151C41.8725 25.5077 42.7502 27.2004 43.5651 28.893C42.7502 30.5857 41.8725 32.2783 40.8694 33.971C39.9291 35.6009 38.8633 37.2309 37.7976 38.8609C35.9169 38.9862 34.0361 39.0489 32.0927 39.0489C30.0866 39.0489 28.2059 38.9862 26.3879 38.8609C25.2594 37.2309 24.2564 35.6009 23.316 33.971C22.313 32.2783 21.4353 30.5857 20.6203 28.893ZM45.1324 25.5077L43.4397 22.3732C42.8128 21.3074 42.2486 20.3044 41.559 19.3013C43.5024 19.5521 45.3205 19.8655 47.0758 20.2417C46.5116 21.997 45.8847 23.7524 45.1324 25.5077ZM45.1324 32.2783C45.8847 34.0337 46.5116 35.789 47.0758 37.4817C45.3205 37.8578 43.5024 38.1713 41.559 38.422C42.1859 37.419 42.8128 36.4159 43.4397 35.3502C44.004 34.4098 44.5682 33.3441 45.1324 32.2783ZM46.5743 54.032C46.0728 54.3455 45.4459 54.4709 44.7563 54.4709C41.6844 54.4709 37.8603 51.9632 34.0988 48.2018C35.9169 46.2584 37.6722 44.0642 39.4275 41.6192C42.374 41.3685 45.1951 40.9296 47.8281 40.3027C48.1416 41.4312 48.3296 42.5596 48.5177 43.688C49.3954 49.0168 48.7058 52.8409 46.5743 54.032ZM49.8342 20.994C56.8556 23.0001 61.0559 26.0719 61.0559 28.893C61.0559 31.338 58.1721 33.7829 53.0941 35.7263C52.0911 36.1025 50.9626 36.4786 49.8342 36.7921C49.0192 34.2217 48.0162 31.5887 46.7624 28.893C48.0162 26.1973 49.0819 23.5643 49.8342 20.994ZM44.8189 3.31517C45.5085 3.31517 46.0728 3.44055 46.637 3.75401C48.7058 4.94513 49.4581 8.70658 48.5804 14.098C48.3923 15.1637 48.1416 16.2922 47.8908 17.4833C45.2578 16.9191 42.4367 16.4802 39.4902 16.1668C37.7976 13.7218 35.9795 11.5277 34.1615 9.58425C37.923 5.8855 41.7471 3.31517 44.8189 3.31517ZM35.6034 15.916C34.475 15.8533 33.2838 15.8533 32.0927 15.8533C30.9016 15.8533 29.7105 15.8533 28.582 15.916C29.7105 14.4114 30.9016 13.0322 32.0927 11.7157C33.2838 13.0322 34.475 14.4741 35.6034 15.916ZM17.6111 3.75401C18.1127 3.44055 18.7396 3.31517 19.4292 3.31517C22.501 3.31517 26.3252 5.8228 30.0866 9.58425C28.2686 11.5277 26.5132 13.7218 24.7579 16.1668C21.8114 16.4175 18.9903 16.8564 16.3573 17.4833C16.0439 16.3549 15.8558 15.2264 15.6677 14.098C14.7901 8.76927 15.4797 5.00782 17.6111 3.75401ZM14.3512 36.7921C7.32986 34.7859 3.12957 31.7141 3.12957 28.893C3.12957 26.4481 6.01335 24.0031 11.0913 22.0597C12.0944 21.6836 13.2228 21.3074 14.3512 20.994C15.1662 23.5643 16.1693 26.1973 17.4231 28.893C16.1693 31.5887 15.1035 34.2844 14.3512 36.7921ZM15.6677 43.688C15.8558 42.6223 16.1066 41.4939 16.3573 40.3027C18.9903 40.867 21.8114 41.3058 24.7579 41.6192C26.4505 44.0642 28.2686 46.2584 30.0866 48.2018C26.3252 51.9005 22.501 54.4709 19.4292 54.4709C18.7396 54.4709 18.1754 54.3455 17.6111 54.032C15.4797 52.8409 14.7901 49.0168 15.6677 43.688Z" fill="#61DAFB"/>
</svg>
