<svg width="65" height="64" viewBox="0 0 65 64" fill="none" xmlns="http://www.w3.org/2000/svg">
<path d="M32.4051 0.513184L2.77661 10.9402L7.45811 49.7587L32.4366 63.4872L57.5436 49.5732L62.2236 10.7557L32.4051 0.513184Z" fill="#B3B3B3"/>
<path d="M59.2681 12.999L32.3361 3.81445V60.207L54.9066 47.7155L59.2681 12.999Z" fill="#A6120D"/>
<path d="M6.10046 13.1645L10.1135 47.8815L32.3355 60.207V3.81348L6.10046 13.1645Z" fill="#DD1B16"/>
<path d="M39.7496 33.8348L32.3361 37.3018H24.5221L20.8486 46.4888L14.0171 46.6158L32.3361 5.86182L39.7496 33.8348ZM39.0326 32.0893L32.3851 18.9288L26.9321 31.8628H32.3356L39.0326 32.0893Z" fill="#F2F2F2"/>
<path d="M32.3354 5.86182L32.3844 18.9288L38.5719 31.8728H32.3489L32.3354 37.2933L40.9399 37.3018L44.9609 46.6168L51.4979 46.7378L32.3354 5.86182Z" fill="#B3B3B3"/>
</svg>
