<svg width="65" height="64" viewBox="0 0 65 64" fill="none" xmlns="http://www.w3.org/2000/svg">
<path d="M1.2041 0.704102H63.7961V63.2966H1.2041V0.704102Z" fill="#F0DB4F"/>
<path d="M58.6735 48.3679C58.215 45.5124 56.353 43.1139 50.8375 40.8774C48.9215 39.9969 46.7855 39.3664 46.149 37.9144C45.923 37.0694 45.893 36.5934 46.036 36.0819C46.4465 34.4219 48.428 33.9044 49.9985 34.3804C51.01 34.7194 51.9675 35.4989 52.545 36.7424C55.246 34.9934 55.2405 35.0049 57.1265 33.8029C56.436 32.7324 56.0675 32.2384 55.6155 31.7804C53.991 29.9659 51.7775 29.0314 48.2375 29.1029L46.3935 29.3414C44.6265 29.7879 42.9425 30.7154 41.955 31.9589C38.992 35.3209 39.837 41.2049 43.4425 43.6264C46.9945 46.2924 52.2125 46.8989 52.879 49.3919C53.5275 52.4439 50.636 53.4319 47.762 53.0809C45.644 52.6404 44.466 51.5639 43.1925 49.6064C40.8485 50.9629 40.8485 50.9629 38.4385 52.3489C39.01 53.5984 39.6105 54.1639 40.5685 55.2464C45.1025 59.8454 56.4485 59.6194 58.4835 52.6584C58.566 52.4194 59.114 50.8254 58.6735 48.3679V48.3679ZM35.231 29.4714H29.3765L29.3525 44.6074C29.3525 47.8264 29.519 50.7774 28.9955 51.6819C28.139 53.4609 25.9195 53.2404 24.908 52.8954C23.8785 52.3894 23.355 51.6699 22.7485 50.6529C22.582 50.3609 22.457 50.1349 22.415 50.1174L17.655 53.0324C18.4465 54.6569 19.6125 56.0669 21.106 56.9829C23.337 58.3219 26.3355 58.7324 29.4715 58.0124C31.5125 57.4179 33.2735 56.1864 34.1955 54.3119C35.5285 51.8544 35.2425 48.8799 35.2305 45.5899C35.2605 40.2224 35.231 34.8559 35.231 29.4714V29.4714Z" fill="#141010"/>
</svg>
