<svg width="65" height="64" viewBox="0 0 65 64" fill="none" xmlns="http://www.w3.org/2000/svg">
<path d="M57.6626 40.3745C57.5176 40.3745 57.3736 40.3365 57.2466 40.2625L55.9216 39.4785C55.7236 39.368 55.8201 39.3285 55.8856 39.306C56.1496 39.214 56.2031 39.1925 56.4846 39.0335C56.5141 39.017 56.5526 39.023 56.5831 39.041L57.6006 39.6455C57.6195 39.6556 57.6406 39.6609 57.6621 39.6609C57.6835 39.6609 57.7046 39.6556 57.7236 39.6455L61.6921 37.355C61.7108 37.344 61.7262 37.3283 61.7369 37.3094C61.7476 37.2905 61.7532 37.2692 61.7531 37.2475V32.6675C61.7531 32.6455 61.7474 32.6239 61.7367 32.6047C61.7259 32.5855 61.7104 32.5694 61.6916 32.558L57.7246 30.2695C57.7058 30.2592 57.6847 30.2538 57.6633 30.2538C57.6419 30.2538 57.6208 30.2592 57.6021 30.2695L53.6356 32.5585C53.6168 32.5699 53.6012 32.5859 53.5902 32.6049C53.5793 32.624 53.5734 32.6455 53.5731 32.6675V37.2475C53.5731 37.2915 53.5976 37.333 53.6356 37.3535L54.7226 37.982C55.3126 38.2765 55.6741 37.9295 55.6741 37.5805V33.058C55.6741 32.9945 55.7256 32.944 55.7891 32.944H56.2926C56.3551 32.944 56.4071 32.9945 56.4071 33.058V37.5805C56.4071 38.3675 55.9786 38.819 55.2321 38.819C55.0026 38.819 54.8221 38.819 54.3181 38.571L53.2776 37.972C53.151 37.8982 53.046 37.7926 52.973 37.6655C52.9 37.5385 52.8616 37.3945 52.8616 37.248V32.668C52.8616 32.3705 53.0201 32.093 53.2776 31.945L57.2461 29.6515C57.3739 29.5819 57.5172 29.5454 57.6628 29.5454C57.8084 29.5454 57.9517 29.5819 58.0796 29.6515L62.0481 31.945C62.3051 32.0935 62.4646 32.371 62.4646 32.668V37.248C62.4643 37.3945 62.4258 37.5384 62.3527 37.6654C62.2796 37.7925 62.1746 37.8981 62.0481 37.972L58.0796 40.263C57.9529 40.3365 57.809 40.375 57.6626 40.3745ZM58.8891 37.219C57.1516 37.219 56.7881 36.4215 56.7881 35.753C56.7882 35.7226 56.8004 35.6935 56.8219 35.672C56.8435 35.6506 56.8727 35.6385 56.9031 35.6385H57.4161C57.4435 35.6384 57.4701 35.6481 57.491 35.6659C57.5119 35.6837 57.5258 35.7084 57.5301 35.7355C57.6071 36.258 57.8386 36.5215 58.8891 36.5215C59.7246 36.5215 60.0806 36.3325 60.0806 35.8885C60.0806 35.6325 59.9796 35.443 58.6806 35.3155C57.5946 35.208 56.9231 34.9685 56.9231 34.099C56.9231 33.2985 57.5981 32.8205 58.7291 32.8205C60.0006 32.8205 60.6296 33.262 60.7091 34.209C60.7103 34.225 60.7083 34.241 60.7031 34.2561C60.698 34.2712 60.6898 34.2852 60.6791 34.297C60.6682 34.3084 60.6552 34.3175 60.6408 34.3237C60.6263 34.33 60.6108 34.3333 60.5951 34.3335H60.0796C60.0536 34.3336 60.0283 34.3247 60.008 34.3084C59.9878 34.2921 59.9737 34.2694 59.9681 34.244C59.8441 33.694 59.5441 33.5185 58.7286 33.5185C57.8161 33.5185 57.7101 33.837 57.7101 34.0745C57.7101 34.363 57.8351 34.447 59.0676 34.61C60.2871 34.7715 60.8666 34.9995 60.8666 35.857C60.8671 36.7235 60.1461 37.219 58.8891 37.219Z" fill="#83CD29"/>
<path d="M49.4909 34.215C49.6474 34.1235 49.7439 33.9565 49.7439 33.775V32.598C49.7439 32.417 49.6479 32.25 49.4909 32.1585L45.3089 29.7305C45.2316 29.6856 45.1437 29.6618 45.0543 29.6616C44.9648 29.6614 44.8769 29.6849 44.7994 29.7295L40.5914 32.159C40.5142 32.2037 40.4502 32.2679 40.4056 32.3451C40.361 32.4223 40.3375 32.5099 40.3374 32.599V37.457C40.3374 37.6395 40.4354 37.8085 40.5944 37.899L44.7759 40.2815C44.9299 40.37 45.1189 40.3705 45.2744 40.2845L47.8034 38.8785C47.8428 38.8567 47.8756 38.8248 47.8986 38.786C47.9216 38.7473 47.9338 38.7032 47.9342 38.6582C47.9345 38.6131 47.9228 38.5688 47.9003 38.5298C47.8779 38.4908 47.8455 38.4584 47.8064 38.436L43.5724 36.006C43.5336 35.9839 43.5013 35.9519 43.4788 35.9133C43.4563 35.8746 43.4444 35.8307 43.4444 35.786V34.263C43.4444 34.172 43.4929 34.0885 43.5714 34.0435L44.8899 33.2835C44.9284 33.2612 44.9721 33.2494 45.0167 33.2494C45.0612 33.2494 45.1049 33.2612 45.1434 33.2835L46.4619 34.0435C46.5006 34.0657 46.5327 34.0976 46.5551 34.1362C46.5775 34.1747 46.5893 34.2185 46.5894 34.263V35.461C46.5891 35.5058 46.6008 35.5499 46.6231 35.5887C46.6454 35.6276 46.6776 35.6598 46.7164 35.6822C46.7552 35.7046 46.7993 35.7162 46.844 35.716C46.8888 35.7158 46.9328 35.7037 46.9714 35.681L49.4909 34.215Z" fill="#141010"/>
<path d="M44.992 33.9868C45.0069 33.9785 45.0237 33.9741 45.0407 33.9741C45.0578 33.9741 45.0746 33.9785 45.0895 33.9868L45.897 34.4533C45.927 34.4708 45.9455 34.5033 45.9455 34.5378V35.4703C45.9455 35.5053 45.927 35.5373 45.897 35.5548L45.0895 36.0208C45.0747 36.0294 45.0579 36.034 45.0407 36.034C45.0236 36.034 45.0068 36.0294 44.992 36.0208L44.185 35.5548C44.1701 35.5463 44.1577 35.534 44.1491 35.5192C44.1405 35.5043 44.1359 35.4875 44.136 35.4703V34.5378C44.136 34.5033 44.1545 34.4708 44.185 34.4533L44.992 33.9868Z" fill="#83CD29"/>
<path d="M34.0415 35.9269C34.0415 35.9719 34.0175 36.0139 33.978 36.0369L32.533 36.8699C32.5137 36.8812 32.4918 36.8871 32.4694 36.8871C32.4471 36.8871 32.4252 36.8812 32.406 36.8699L30.961 36.0369C30.9417 36.0257 30.9257 36.0097 30.9145 35.9904C30.9034 35.9711 30.8975 35.9492 30.8974 35.9269V34.2579C30.8974 34.2129 30.922 34.1704 30.961 34.1474L32.406 33.3134C32.4252 33.3018 32.4472 33.2957 32.4697 33.2957C32.4922 33.2957 32.5142 33.3018 32.5335 33.3134L33.979 34.1474C33.9981 34.1588 34.014 34.175 34.025 34.1943C34.0361 34.2137 34.0419 34.2356 34.042 34.2579V35.9269H34.0415ZM34.4319 23.5689C34.3932 23.5477 34.3496 23.5369 34.3055 23.5376C34.2613 23.5383 34.2181 23.5504 34.18 23.5728C34.142 23.5951 34.1103 23.627 34.0882 23.6652C34.0661 23.7034 34.0543 23.7467 34.054 23.7909V30.2484C34.0538 30.2795 34.0456 30.3101 34.0301 30.3371C34.0146 30.3641 33.9923 30.3866 33.9655 30.4024C33.9383 30.4179 33.9077 30.426 33.8764 30.426C33.8452 30.426 33.8146 30.4179 33.7874 30.4024L32.7335 29.7949C32.6563 29.7504 32.5688 29.727 32.4797 29.727C32.3906 29.727 32.3031 29.7504 32.226 29.7949L28.017 32.2239C27.9396 32.2685 27.8754 32.3327 27.8307 32.4101C27.786 32.4874 27.7625 32.5751 27.7625 32.6644V37.5239C27.7625 37.7054 27.8595 37.8729 28.0165 37.9644L32.2255 40.3949C32.3825 40.4859 32.5765 40.4859 32.734 40.3949L36.944 37.9644C37.0211 37.9196 37.0852 37.8553 37.1298 37.778C37.1743 37.7007 37.1978 37.6131 37.198 37.5239V25.4104C37.198 25.2264 37.0979 25.0564 36.9375 24.9664L34.4319 23.5689Z" fill="#141010"/>
<path d="M19.619 29.7035C19.6962 29.6588 19.7838 29.6353 19.873 29.6353C19.9622 29.6353 20.0498 29.6588 20.127 29.7035L24.336 32.132C24.493 32.223 24.59 32.391 24.59 32.5725V37.4335C24.59 37.615 24.493 37.783 24.336 37.874L20.1275 40.3045C20.0501 40.349 19.9624 40.3724 19.8732 40.3724C19.784 40.3724 19.6963 40.349 19.619 40.3045L15.4115 37.874C15.3343 37.8292 15.2702 37.7649 15.2257 37.6876C15.1811 37.6103 15.1576 37.5227 15.1575 37.4335V32.572C15.1575 32.391 15.2545 32.223 15.4115 32.132L19.619 29.7035Z" fill="#83CD29"/>
<path d="M11.9649 32.532C11.9649 32.349 11.8689 32.181 11.7109 32.0905L7.50345 29.669C7.43279 29.6281 7.35308 29.6052 7.27145 29.6025H7.22795C7.14632 29.6053 7.06663 29.6281 6.99595 29.669L2.78795 32.0905C2.71054 32.1353 2.64627 32.1997 2.6016 32.2772C2.55693 32.3547 2.53343 32.4426 2.53345 32.532L2.54245 39.052C2.54245 39.143 2.58995 39.2275 2.66945 39.2715C2.70751 39.2946 2.75118 39.3068 2.7957 39.3068C2.84021 39.3068 2.88388 39.2946 2.92195 39.2715L5.42195 37.8395C5.57995 37.7455 5.67645 37.58 5.67645 37.3985V34.3525C5.67645 34.1705 5.77245 34.003 5.92995 33.912L6.99495 33.299C7.07192 33.2538 7.15967 33.2301 7.24895 33.2305C7.33595 33.2305 7.42495 33.2525 7.50245 33.299L8.56645 33.912C8.72395 34.003 8.82095 34.1705 8.82095 34.3525V37.3985C8.82095 37.58 8.91845 37.7465 9.07545 37.8395L11.5754 39.2715C11.614 39.2936 11.6577 39.3051 11.7021 39.305C11.7465 39.3049 11.79 39.2931 11.8285 39.2709C11.8669 39.2487 11.8989 39.2168 11.9212 39.1784C11.9434 39.14 11.9553 39.0964 11.9554 39.052L11.9649 32.532Z" fill="#141010"/>
</svg>
