<svg width="65" height="64" viewBox="0 0 65 64" fill="none" xmlns="http://www.w3.org/2000/svg">
<path d="M59.1508 48.759L37.1406 2.01847C36.8671 1.44335 36.4432 0.952873 35.9138 0.598929C35.3844 0.244985 34.7691 0.0407437 34.1331 0.00781715C33.4959 -0.0348837 32.8592 0.097942 32.2922 0.391849C31.7252 0.685756 31.2497 1.12949 30.9173 1.6748L7.04514 40.339C6.68215 40.9228 6.49311 41.598 6.50019 42.2854C6.50727 42.9728 6.71017 43.644 7.0851 44.2202L18.7563 62.2939C19.1978 62.9724 19.8469 63.4899 20.6066 63.7693C21.3664 64.0487 22.1961 64.075 22.9721 63.8443L56.8422 53.8258C57.3521 53.6767 57.8242 53.4199 58.2264 53.0727C58.6285 52.7254 58.9515 52.2959 59.1733 51.8131C59.3921 51.3328 59.5035 50.8107 59.4999 50.283C59.4963 49.7552 59.3777 49.2346 59.1524 48.7574L59.1508 48.759ZM54.223 50.7637L25.4823 59.2622C24.6055 59.523 23.7639 58.763 23.9463 57.8782L34.2147 8.71249C34.4066 7.79267 35.6769 7.64692 36.0786 8.49822L55.0869 48.863C55.171 49.0428 55.215 49.2388 55.216 49.4373C55.217 49.6358 55.1749 49.8322 55.0926 50.0128C55.0103 50.1935 54.8899 50.3542 54.7395 50.4838C54.5891 50.6134 54.4124 50.7088 54.2216 50.7635L54.223 50.7637Z" fill="#141010"/>
</svg>
