<svg width="65" height="64" viewBox="0 0 65 64" fill="none" xmlns="http://www.w3.org/2000/svg">
<path d="M32.5 37.6998C35.6481 37.6998 38.2001 35.1478 38.2001 31.9998C38.2001 28.8518 35.6481 26.2998 32.5 26.2998C29.352 26.2998 26.8 28.8518 26.8 31.9998C26.8 35.1478 29.352 37.6998 32.5 37.6998Z" fill="#61DAFB"/>
<path d="M54.15 22.5998C53.05 22.1998 51.9 21.7998 50.7 21.4498C51 20.2498 51.25 19.0498 51.45 17.8998C52.5 11.2998 51.35 6.6498 48.15 4.8498C47.2 4.2998 46.15 4.0498 44.95 4.0498C41.45 4.0498 37 6.6498 32.5 10.9998C28 6.6498 23.5499 4.0498 20.0499 4.0498C18.8499 4.0498 17.8 4.2998 16.85 4.8498C13.65 6.6998 12.5 11.3498 13.55 17.8998C13.75 19.0498 14 20.2498 14.3 21.4498C13.1 21.7998 11.95 22.1498 10.85 22.5998C4.59995 24.9998 1.19995 28.2998 1.19995 31.9998C1.19995 35.6998 4.64995 38.9998 10.85 41.3998C11.95 41.7998 13.1 42.1998 14.3 42.5498C14 43.7498 13.75 44.9498 13.55 46.0998C12.5 52.6998 13.65 57.3498 16.85 59.1498C17.8 59.6998 18.8499 59.9498 20.0499 59.9498C23.5999 59.9498 28.05 57.3498 32.5 52.9998C37 57.3498 41.45 59.9498 44.95 59.9498C46.15 59.9498 47.2 59.6998 48.15 59.1498C51.35 57.2998 52.5 52.6498 51.45 46.0998C51.25 44.9498 51 43.7498 50.7 42.5498C51.9 42.1998 53.05 41.8498 54.15 41.3998C60.4 38.9998 63.7999 35.6998 63.7999 31.9998C63.7999 28.2998 60.4 24.9998 54.15 22.5998V22.5998ZM46.75 7.3498C48.8 8.5498 49.5 12.2498 48.65 17.4998C48.5 18.5498 48.25 19.6498 47.95 20.7998C45.35 20.1998 42.6 19.7998 39.7 19.5498C38 17.1498 36.25 14.9998 34.5 13.0498C38.2 9.3998 41.95 6.8998 45 6.8998C45.65 6.8998 46.25 7.0498 46.75 7.3498V7.3498ZM41.15 36.9998C40.25 38.5998 39.1999 40.1998 38.0999 41.7998C36.2499 41.9498 34.4 41.9998 32.5 41.9998C30.55 41.9998 28.6999 41.9498 26.9 41.7998C25.8 40.1998 24.8 38.5998 23.9 36.9998C22.95 35.3498 22.05 33.6498 21.25 31.9998C22.05 30.3498 22.95 28.6498 23.9 26.9998C24.8 25.3998 25.85 23.7998 26.95 22.1998C28.8 22.0498 30.6499 21.9998 32.5499 21.9998C34.4999 21.9998 36.35 22.0498 38.15 22.1998C39.25 23.7998 40.25 25.3998 41.15 26.9998C42.1 28.6498 42.9999 30.3498 43.7999 31.9998C42.9499 33.6498 42.1 35.2998 41.15 36.9998ZM45.2999 35.3498C46.0499 37.0998 46.65 38.7998 47.2 40.4998C45.5 40.8998 43.6999 41.1998 41.7999 41.4498C42.3999 40.4998 43.0499 39.4998 43.5999 38.4498C44.1999 37.3998 44.7499 36.3498 45.2999 35.3498ZM32.5 48.8998C31.3 47.5998 30.1499 46.1998 29.0499 44.7498C30.1999 44.7998 31.35 44.8498 32.5 44.8498C33.65 44.8498 34.8 44.7998 35.95 44.7498C34.85 46.1998 33.7 47.5998 32.5 48.8998ZM23.2 41.3998C21.3 41.1498 19.4999 40.8498 17.7999 40.4498C18.3499 38.7998 18.95 37.0498 19.7 35.2998C20.25 36.2998 20.8 37.3498 21.4 38.3498C22 39.4498 22.6 40.3998 23.2 41.3998V41.3998ZM19.7 28.6498C18.95 26.8998 18.3499 25.1998 17.7999 23.4998C19.4999 23.0998 21.3 22.7998 23.2 22.5498C22.6 23.4998 21.95 24.4998 21.4 25.5498C20.8 26.5998 20.25 27.6498 19.7 28.6498V28.6498ZM32.5 15.0998C33.7 16.3998 34.85 17.7998 35.95 19.2498C34.8 19.1998 33.65 19.1498 32.5 19.1498C31.35 19.1498 30.1999 19.1998 29.0499 19.2498C30.1499 17.7998 31.3 16.3998 32.5 15.0998ZM43.5999 25.5998L41.7999 22.5998C43.6999 22.8498 45.5 23.1498 47.2 23.5498C46.65 25.1998 46.0499 26.9498 45.2999 28.6998C44.7499 27.6498 44.1999 26.5998 43.5999 25.5998ZM16.35 17.4998C15.5 12.2498 16.2 8.5498 18.25 7.3498C18.75 7.0498 19.35 6.8998 20 6.8998C23 6.8998 26.75 9.3498 30.5 13.0498C28.75 14.9498 26.9999 17.1498 25.2999 19.5498C22.3999 19.7998 19.65 20.2498 17.05 20.7998C16.75 19.6498 16.55 18.5498 16.35 17.4998V17.4998ZM3.99995 31.9998C3.99995 29.6498 6.84995 27.1498 11.85 25.2998C12.85 24.8998 13.95 24.5498 15.05 24.2498C15.85 26.7498 16.8499 29.3998 18.0499 32.0498C16.8499 34.6998 15.8 37.2998 15.05 39.7998C8.14995 37.7998 3.99995 34.7998 3.99995 31.9998ZM18.25 56.6498C16.2 55.4498 15.5 51.7498 16.35 46.4998C16.5 45.4498 16.75 44.3498 17.05 43.1998C19.65 43.7998 22.3999 44.1998 25.2999 44.4498C26.9999 46.8498 28.75 48.9998 30.5 50.9498C26.8 54.5998 23.05 57.0998 20 57.0998C19.35 57.0998 18.75 56.9498 18.25 56.6498ZM48.65 46.4998C49.5 51.7498 48.8 55.4498 46.75 56.6498C46.25 56.9498 45.65 57.0998 45 57.0998C42 57.0998 38.25 54.6498 34.5 50.9498C36.25 49.0498 38 46.8498 39.7 44.4498C42.6 44.1998 45.35 43.7498 47.95 43.1998C48.25 44.3498 48.45 45.4498 48.65 46.4998V46.4998ZM53.15 38.6998C52.15 39.0998 51.05 39.4498 49.95 39.7498C49.15 37.2498 48.15 34.5998 46.95 31.9498C48.15 29.2998 49.2 26.6998 49.95 24.1998C56.85 26.1998 61 29.1998 61 31.9998C61 34.3498 58.1 36.8498 53.15 38.6998Z" fill="#61DAFB"/>
</svg>
