<svg width="65" height="64" viewBox="0 0 65 64" fill="none" xmlns="http://www.w3.org/2000/svg">
<path d="M44.8451 44.0551C40.3451 53.2551 32.4651 59.4451 22.0401 61.4801C20.4417 61.8717 18.8007 62.0632 17.1551 62.0501C11.1551 62.0501 5.65509 59.5501 2.98509 55.4551C-0.59991 50.0001 -1.81991 38.4351 10.0001 29.8801C10.2401 31.1851 10.7301 32.9751 11.0551 34.0351C8.73475 35.759 6.83547 37.9865 5.50009 40.5501C3.30009 44.8701 3.54509 49.1851 6.15009 53.1751C7.95009 55.8651 10.8001 57.5001 14.4651 58.0001C19.0428 58.5795 23.6868 57.705 27.7401 55.5001C34.0951 52.1601 38.3301 48.1701 41.1001 42.7151C40.3168 41.9057 39.8532 40.84 39.7951 39.7151C39.7532 38.508 40.1919 37.3337 41.015 36.4497C41.838 35.5658 42.9781 35.0444 44.1851 35.0001H44.3551C45.5291 34.9942 46.6604 35.4399 47.515 36.2449C48.3695 37.0498 48.8819 38.1525 48.9462 39.3248C49.0104 40.497 48.6215 41.6491 47.86 42.5426C47.0985 43.4361 46.0227 44.0027 44.8551 44.1251L44.8451 44.0551ZM59.1801 33.9551C65.2851 40.8751 65.4501 49.0201 63.0901 53.7451C60.8901 58.0601 55.0901 62.3801 47.2901 62.3801C43.6489 62.3058 40.0669 61.4445 36.7901 59.8551C37.9351 59.0401 39.5601 57.7351 40.4551 56.9201C42.982 58.0148 45.7014 58.5961 48.4551 58.6301C53.5051 58.6301 57.3301 56.2701 59.6101 51.9551C61.0751 49.1051 61.1601 45.7651 59.7751 42.3451C58.0756 38.042 55.0515 34.391 51.1401 31.9201C46.0084 28.4608 39.9588 26.6167 33.7701 26.6251H32.3051C31.9635 27.4142 31.4077 28.092 30.7008 28.5815C29.9938 29.0711 29.164 29.3529 28.3051 29.3951H28.1501C26.9622 29.3805 25.8267 28.9034 24.985 28.0651C24.1432 27.2268 23.6613 26.0933 23.6418 24.9055C23.6223 23.7176 24.0666 22.569 24.8804 21.7035C25.6942 20.8379 26.8133 20.3238 28.0001 20.2701H28.1651C28.9921 20.2707 29.803 20.4993 30.5086 20.9306C31.2143 21.3619 31.7874 21.9794 32.1651 22.7151H33.4701C43.8701 22.7151 53.0001 26.7051 59.1801 33.9551ZM17.8051 45.4551C17.7195 44.6248 17.9206 43.7902 18.3751 43.0901C13.8151 35.1901 11.3751 25.1751 15.1201 14.7501C17.8051 6.91512 24.5651 1.62012 31.8951 1.62012C39.7151 1.62012 47.8601 8.46512 48.8351 21.6551C47.6151 21.2501 45.8351 20.6551 44.7651 20.4351C44.5001 16.1201 40.8551 5.37012 32.2201 5.53012C29.1251 5.61512 24.5651 7.08012 22.2201 10.0901C19.3194 13.6832 17.632 18.1031 17.4001 22.7151C16.8504 29.039 18.3341 35.3732 21.6351 40.7951C21.8173 40.7285 22.0116 40.7013 22.2051 40.7151H22.3651C23.5745 40.6932 24.743 41.1527 25.6137 41.9924C26.4843 42.8321 26.9857 43.9832 27.0076 45.1926C27.0295 46.402 26.57 47.5706 25.7303 48.4412C24.8906 49.3118 23.7395 49.8132 22.5301 49.8351H22.3651C21.1852 49.8309 20.0525 49.3716 19.203 48.5528C18.3535 47.734 17.8527 46.619 17.8051 45.4401V45.4551Z" fill="#764ABC"/>
</svg>
