<svg width="65" height="66" viewBox="0 0 65 66" fill="none" xmlns="http://www.w3.org/2000/svg">
<path d="M58.726 4.32132C57.8297 6.47166 56.6822 8.50847 55.3075 10.3893C49.2845 4.36976 41.1179 0.987851 32.6025 0.986816C14.992 0.986816 0.5 15.4908 0.5 33.1208C0.499813 37.4743 1.3836 41.7826 3.0978 45.7844C4.81201 49.7863 7.32092 53.3984 10.4725 56.4018L11.6565 57.4518C17.443 62.3305 24.7668 65.0084 32.3355 65.0128C49.079 65.0128 63.154 51.8928 64.346 35.1713C65.2215 26.9858 62.8205 16.6328 58.726 4.32132ZM15.0335 56.5848C14.7757 56.9024 14.4504 57.1585 14.0811 57.3344C13.7119 57.5104 13.308 57.6017 12.899 57.6018C11.39 57.6018 10.1555 56.3598 10.1555 54.8508C10.1555 53.3423 11.398 52.1003 12.899 52.1003C13.524 52.1003 14.1415 52.3168 14.625 52.7173C15.8005 53.6673 15.984 55.4093 15.0335 56.5848ZM58.593 46.9658C50.6715 57.5268 33.753 53.9673 22.905 54.4758C22.905 54.4758 20.979 54.5928 19.0445 54.9093C19.0445 54.9093 19.7695 54.6008 20.712 54.2423C28.325 51.5918 31.927 51.0748 36.5545 48.6993C45.268 44.2648 53.8815 34.5623 55.6745 24.4678C52.356 34.1788 42.2995 42.5228 33.136 45.9153C26.8575 48.2328 15.517 50.4833 15.517 50.4833L15.0585 50.2413C7.3375 46.4823 7.1035 29.7528 21.137 24.3513C27.2825 21.9838 33.161 23.2843 39.7985 21.7003C46.886 20.0168 55.0825 14.6983 58.4175 7.76332C62.153 18.8583 66.6475 36.2293 58.5925 46.9658H58.593Z" fill="#77BC1F"/>
</svg>
