<svg width="65" height="64" viewBox="0 0 65 64" fill="none" xmlns="http://www.w3.org/2000/svg">
<path d="M32.502 12.8008C23.9685 12.8008 18.637 17.0658 16.502 25.5993C19.701 21.3338 23.4355 19.7343 27.701 20.8008C30.1365 21.4078 31.877 23.1738 33.8045 25.1308C36.9415 28.3143 40.5725 31.9998 48.502 31.9998C57.035 31.9998 62.367 27.7343 64.502 19.1988C61.3025 23.4668 57.5685 25.0663 53.3025 23.9998C50.8675 23.3923 49.129 21.6268 47.199 19.6698C44.064 16.4863 40.434 12.8008 32.502 12.8008ZM16.502 31.9998C7.96895 31.9998 2.63695 36.2653 0.501953 44.8008C3.70095 40.5328 7.43495 38.9333 11.701 39.9998C14.1365 40.6073 15.877 42.3728 17.8045 44.3298C20.9415 47.5133 24.5725 51.1988 32.502 51.1988C41.035 51.1988 46.367 46.9338 48.502 38.4003C45.3025 42.6658 41.5685 44.2653 37.3025 43.1988C34.8675 42.5918 33.129 40.8258 31.199 38.8688C28.064 35.6853 24.434 31.9998 16.502 31.9998Z" fill="#38B2AC"/>
</svg>
