<svg width="38" height="39" viewBox="0 0 38 39" fill="none" xmlns="http://www.w3.org/2000/svg">
<g clip-path="url(#clip0_672_201)">
<path fill-rule="evenodd" clip-rule="evenodd" d="M19.0157 0.502441C8.50052 0.502441 0 9.06563 0 19.6595C0 28.1277 5.44657 35.2958 13.0024 37.8329C13.9471 38.0236 14.2931 37.4207 14.2931 36.9135C14.2931 36.4694 14.262 34.9471 14.262 33.3609C8.97227 34.503 7.87074 31.0773 7.87074 31.0773C7.02064 28.8571 5.76108 28.2865 5.76108 28.2865C4.02976 27.1129 5.88719 27.1129 5.88719 27.1129C7.80768 27.2398 8.81541 29.0793 8.81541 29.0793C10.5152 31.9971 13.2543 31.1727 14.3562 30.6651C14.5134 29.4281 15.0175 28.5718 15.5527 28.0961C11.3338 27.652 6.89492 26.0028 6.89492 18.6443C6.89492 16.551 7.65004 14.8384 8.84655 13.5064C8.65777 13.0308 7.99646 11.064 9.03572 8.43156C9.03572 8.43156 10.6413 7.924 14.2616 10.398C15.8116 9.97864 17.41 9.76532 19.0157 9.76353C20.6213 9.76353 22.2581 9.98578 23.7695 10.398C27.3901 7.924 28.9957 8.43156 28.9957 8.43156C30.035 11.064 29.3733 13.0308 29.1845 13.5064C30.4125 14.8384 31.1365 16.551 31.1365 18.6443C31.1365 26.0028 26.6977 27.6201 22.4472 28.0961C23.1401 28.6987 23.7379 29.8403 23.7379 31.6483C23.7379 34.2173 23.7068 36.279 23.7068 36.9131C23.7068 37.4207 24.0532 38.0236 24.9975 37.8333C32.5533 35.2954 37.9999 28.1277 37.9999 19.6595C38.0311 9.06563 29.4994 0.502441 19.0157 0.502441Z" fill="#B0AEAE"/>
</g>
<defs>
<clipPath id="clip0_672_201">
<rect width="38" height="38" fill="white" transform="translate(0 0.502441)"/>
</clipPath>
</defs>
</svg>
