<svg width="38" height="39" viewBox="0 0 38 39" fill="none" xmlns="http://www.w3.org/2000/svg">
<g clip-path="url(#clip0_672_199)">
<path d="M19 3.92393C24.0766 3.92393 24.6777 3.94619 26.6742 4.03525C28.5297 4.11689 29.5316 4.42861 30.1996 4.68838C31.0828 5.02979 31.7211 5.44541 32.3816 6.10596C33.0496 6.77393 33.4578 7.40479 33.7992 8.28799C34.059 8.95596 34.3707 9.96533 34.4523 11.8134C34.5414 13.8173 34.5637 14.4185 34.5637 19.4876C34.5637 24.5642 34.5414 25.1653 34.4523 27.1618C34.3707 29.0173 34.059 30.0192 33.7992 30.6872C33.4578 31.5704 33.0422 32.2087 32.3816 32.8692C31.7137 33.5372 31.0828 33.9454 30.1996 34.2868C29.5316 34.5466 28.5223 34.8583 26.6742 34.9399C24.6703 35.029 24.0691 35.0513 19 35.0513C13.9234 35.0513 13.3223 35.029 11.3258 34.9399C9.47031 34.8583 8.46836 34.5466 7.80039 34.2868C6.91719 33.9454 6.27891 33.5298 5.61836 32.8692C4.95039 32.2013 4.54219 31.5704 4.20078 30.6872C3.94102 30.0192 3.6293 29.0099 3.54766 27.1618C3.45859 25.1579 3.43633 24.5567 3.43633 19.4876C3.43633 14.411 3.45859 13.8099 3.54766 11.8134C3.6293 9.95791 3.94102 8.95596 4.20078 8.28799C4.54219 7.40479 4.95781 6.7665 5.61836 6.10596C6.28633 5.43799 6.91719 5.02979 7.80039 4.68838C8.46836 4.42861 9.47774 4.11689 11.3258 4.03525C13.3223 3.94619 13.9234 3.92393 19 3.92393ZM19 0.502441C13.8418 0.502441 13.1961 0.524707 11.1699 0.61377C9.15117 0.702832 7.76328 1.02939 6.56094 1.49697C5.30664 1.98682 4.24531 2.63252 3.19141 3.69385C2.13008 4.74775 1.48438 5.80908 0.994531 7.05596C0.526953 8.26572 0.200391 9.64619 0.111328 11.6649C0.0222656 13.6985 0 14.3442 0 19.5024C0 24.6606 0.0222656 25.3063 0.111328 27.3325C0.200391 29.3513 0.526953 30.7392 0.994531 31.9415C1.48438 33.1958 2.13008 34.2571 3.19141 35.311C4.24531 36.3649 5.30664 37.0181 6.55352 37.5005C7.76328 37.9681 9.14375 38.2946 11.1625 38.3837C13.1887 38.4728 13.8344 38.495 18.9926 38.495C24.1508 38.495 24.7965 38.4728 26.8227 38.3837C28.8414 38.2946 30.2293 37.9681 31.4316 37.5005C32.6785 37.0181 33.7398 36.3649 34.7938 35.311C35.8477 34.2571 36.5008 33.1958 36.9832 31.9489C37.4508 30.7392 37.7773 29.3587 37.8664 27.3399C37.9555 25.3138 37.9777 24.6681 37.9777 19.5099C37.9777 14.3517 37.9555 13.706 37.8664 11.6798C37.7773 9.66104 37.4508 8.27314 36.9832 7.0708C36.5156 5.80908 35.8699 4.74775 34.8086 3.69385C33.7547 2.63994 32.6934 1.98682 31.4465 1.50439C30.2367 1.03682 28.8563 0.710254 26.8375 0.621191C24.8039 0.524707 24.1582 0.502441 19 0.502441Z" fill="#B0AEAE"/>
<path d="M19 9.74268C13.6117 9.74268 9.24023 14.1142 9.24023 19.5024C9.24023 24.8907 13.6117 29.2622 19 29.2622C24.3883 29.2622 28.7598 24.8907 28.7598 19.5024C28.7598 14.1142 24.3883 9.74268 19 9.74268ZM19 25.8333C15.5043 25.8333 12.6691 22.9981 12.6691 19.5024C12.6691 16.0067 15.5043 13.1716 19 13.1716C22.4957 13.1716 25.3309 16.0067 25.3309 19.5024C25.3309 22.9981 22.4957 25.8333 19 25.8333Z" fill="#B0AEAE"/>
<path d="M31.4242 9.35664C31.4242 10.6184 30.4 11.6352 29.1457 11.6352C27.884 11.6352 26.8672 10.6109 26.8672 9.35664C26.8672 8.09492 27.8914 7.07812 29.1457 7.07812C30.4 7.07812 31.4242 8.10235 31.4242 9.35664Z" fill="#B0AEAE"/>
</g>
<defs>
<clipPath id="clip0_672_199">
<rect width="38" height="38" fill="white" transform="translate(0 0.502441)"/>
</clipPath>
</defs>
</svg>
