<svg width="38" height="39" viewBox="0 0 38 39" fill="none" xmlns="http://www.w3.org/2000/svg">
<g clip-path="url(#clip0_672_200)">
<path d="M35.1871 0.502441H2.80547C1.2543 0.502441 0 1.72705 0 3.24111V35.7563C0 37.2704 1.2543 38.5024 2.80547 38.5024H35.1871C36.7383 38.5024 38 37.2704 38 35.7638V3.24111C38 1.72705 36.7383 0.502441 35.1871 0.502441ZM11.2738 32.8841H5.6332V14.745H11.2738V32.8841ZM8.45352 12.2735C6.64258 12.2735 5.18047 10.8114 5.18047 9.00791C5.18047 7.20439 6.64258 5.74228 8.45352 5.74228C10.257 5.74228 11.7191 7.20439 11.7191 9.00791C11.7191 10.804 10.257 12.2735 8.45352 12.2735ZM32.3816 32.8841H26.7484V24.0669C26.7484 21.9665 26.7113 19.2575 23.8168 19.2575C20.8852 19.2575 20.4398 21.5509 20.4398 23.9185V32.8841H14.8141V14.745H20.2172V17.2239H20.2914C21.041 15.7989 22.8816 14.2923 25.6203 14.2923C31.3277 14.2923 32.3816 18.0478 32.3816 22.9313V32.8841Z" fill="#B0AEAE"/>
</g>
<defs>
<clipPath id="clip0_672_200">
<rect width="38" height="38" fill="white" transform="translate(0 0.502441)"/>
</clipPath>
</defs>
</svg>
